# xmcd
#
# Track frame offsets:
# 188
# 13384
# 23464
# 35200
# 47014
# 58988
# 69724
# 80943
# 95363
# 107564
# 122638
# 135902
#
# Disc length: 1968 seconds
#
# Revision: 1
# Processed by: cddbd v1.5.1PL0 Copyright (c) Steve Scherf et al.
# Submitted via: CedeCatalogueitor 2.6.0.6 http://personales.ya.com/cdcatalogueitor
#
DISCID=a507ae0c
DTITLE=Nat King Cole - Gran Selección
DYEAR=1998
DGENRE=
TTITLE0=Shoo Shoo Baby
TTITLE1=Baby Won't You Please Come Home
TTITLE2=Is You Is Or Is You Ain't My Baby
TTITLE3=Baby
TTITLE4=That'll Just About Knock Me Out
TTITLE5=Babs
TTITLE6=Scotchin' With Soda
TTITLE7=Sweet Lorraine
TTITLE8=Jump, Jack, Jump
TTITLE9=Embraceable You
TTITLE10=Gee Baby Ain't I Good For You
TTITLE11=Those Things Money Can`t Buy
EXTD=
EXTT0=
EXTT1=
EXTT2=
EXTT3=
EXTT4=
EXTT5=
EXTT6=
EXTT7=
EXTT8=
EXTT9=
EXTT10=
EXTT11=
PLAYORDER=
